<?xml version="1.0" encoding="UTF-8"?>
<svg id="Layer_2" data-name="Layer 2" xmlns="http://www.w3.org/2000/svg" viewBox="0 0 28.53 27.76">
  <defs>
    <style>
      .cls-1 {
        fill: #131719;
        stroke-width: 0px;
      }
    </style>
  </defs>
  <g id="Layer_1-2" data-name="Layer 1">
    <path class="cls-1" d="M27.2,12.58h-9.9c-.73,0-1.32.59-1.32,1.33s.59,1.32,1.32,1.32h1.97c-.61,2.43-2.81,4.19-5.37,4.19-3.05,0-5.54-2.48-5.54-5.54s2.48-5.54,5.54-5.54c1.1,0,2.17.32,3.08.94.29.2.65.27.99.2.35-.07.65-.27.84-.56.2-.29.27-.65.2-.99-.07-.35-.27-.65-.56-.84-1.35-.91-2.93-1.39-4.56-1.39-4.51,0-8.19,3.67-8.19,8.19s3.67,8.19,8.19,8.19c4.04,0,7.43-2.91,8.08-6.84h3.05c-.67,5.59-5.45,9.88-11.15,9.88-6.19,0-11.23-5.04-11.23-11.23S7.69,2.65,13.88,2.65c1.89,0,3.76.48,5.41,1.38.31.17.67.21,1.01.11.34-.1.62-.32.79-.63.35-.64.12-1.45-.52-1.8-2.04-1.12-4.35-1.71-6.69-1.71C6.23,0,0,6.23,0,13.88s6.23,13.88,13.88,13.88c7.2,0,13.19-5.51,13.82-12.63.48-.2.82-.67.82-1.23,0-.73-.59-1.33-1.32-1.33Z"/>
  </g>
</svg>