<?xml version="1.0" encoding="UTF-8"?>
<svg id="Layer_2" data-name="Layer 2" xmlns="http://www.w3.org/2000/svg" viewBox="0 0 145.48 27.76">
  <defs>
    <style>
      .cls-1 {
        fill: #131719;
        stroke-width: 0px;
      }
    </style>
  </defs>
  <g id="Layer_1-2" data-name="Layer 1">
    <g>
      <path class="cls-1" d="M27.2,12.58h-9.9c-.73,0-1.32.59-1.32,1.33s.59,1.32,1.32,1.32h1.97c-.61,2.43-2.81,4.19-5.37,4.19-3.05,0-5.54-2.48-5.54-5.54s2.48-5.54,5.54-5.54c1.1,0,2.17.32,3.08.94.29.2.65.27.99.2.35-.07.65-.27.84-.56.2-.29.27-.65.2-.99-.07-.35-.27-.65-.56-.84-1.35-.91-2.93-1.39-4.56-1.39-4.51,0-8.19,3.67-8.19,8.19s3.67,8.19,8.19,8.19c4.04,0,7.43-2.91,8.08-6.84h3.05c-.67,5.59-5.45,9.88-11.15,9.88-6.19,0-11.23-5.04-11.23-11.23S7.69,2.65,13.88,2.65c1.89,0,3.76.48,5.41,1.38.31.17.67.21,1.01.11.34-.1.62-.32.79-.63.35-.64.12-1.45-.52-1.8-2.04-1.12-4.35-1.71-6.69-1.71C6.23,0,0,6.23,0,13.88s6.23,13.88,13.88,13.88c7.2,0,13.19-5.51,13.82-12.63.48-.2.82-.67.82-1.23,0-.73-.59-1.33-1.32-1.33Z"/>
      <g>
        <path class="cls-1" d="M53.47,12.31h-4.76c-.4,0-.76.14-1.05.42-.3.28-.45.66-.45,1.09s.16.81.45,1.09c.29.27.65.42,1.05.42h1.85c-.06.55-.22,1.05-.47,1.52-.37.68-.87,1.19-1.54,1.58-.67.39-1.41.58-2.25.58-.93,0-1.75-.21-2.49-.64-.74-.43-1.3-1-1.72-1.75-.42-.76-.63-1.59-.63-2.54s.21-1.79.64-2.53c.43-.75,1-1.32,1.76-1.75.75-.42,1.6-.64,2.53-.64,1.29,0,2.37.4,3.33,1.22.6.5,1.48.46,2.02-.08.29-.29.44-.66.44-1.06,0-.48-.2-.9-.53-1.16-.72-.61-1.54-1.09-2.44-1.42-.9-.33-1.85-.49-2.82-.49-1.46,0-2.82.35-4.02,1.03-1.21.69-2.17,1.65-2.86,2.85-.69,1.2-1.04,2.56-1.04,4.02s.34,2.83,1.02,4.03c.68,1.2,1.63,2.16,2.82,2.84,1.19.69,2.54,1.03,4,1.03,1.37,0,2.64-.33,3.76-.97,1.13-.65,2.02-1.56,2.65-2.7.5-.91.79-1.91.87-2.99.38-.02.71-.17.97-.43.28-.28.43-.65.43-1.07s-.15-.79-.43-1.08c-.28-.28-.65-.43-1.07-.43Z"/>
        <path class="cls-1" d="M61.91,10.34c-.89,0-1.69.23-2.4.68-.08.05-.15.1-.23.16-.07-.13-.16-.25-.27-.36-.59-.59-1.61-.56-2.15.01-.27.29-.42.65-.42,1.05v8.52c0,.4.14.77.42,1.05.28.3.66.45,1.09.45s.78-.15,1.07-.44c.29-.29.44-.66.44-1.06v-3.66c0-.7.11-1.33.32-1.87.2-.5.47-.9.81-1.17.31-.25.67-.37,1.08-.37.48,0,.7.16.82.28.19.19.29.47.3.84v.07c.05.41.19.75.43,1.01.55.61,1.6.6,2.17,0,.19-.2.43-.57.43-1.16,0-1.2-.36-2.18-1.07-2.91-.72-.74-1.68-1.12-2.84-1.12Z"/>
        <path class="cls-1" d="M75.52,10.81c-.05.05-.1.11-.15.17-.21-.11-.43-.21-.65-.29-.63-.24-1.32-.36-2.03-.36-1.06,0-2.04.26-2.9.76-.87.51-1.55,1.21-2.04,2.1-.49.88-.73,1.87-.73,2.95s.25,2.06.73,2.94c.49.89,1.18,1.61,2.04,2.12.86.51,1.84.77,2.9.77.7,0,1.37-.12,2.01-.36.24-.09.47-.19.69-.31.04.05.08.1.13.15.58.57,1.55.58,2.13,0,.29-.29.44-.66.44-1.06v-8.52c0-.41-.15-.78-.44-1.07-.58-.58-1.56-.57-2.13,0ZM70.39,17.62c-.24-.44-.36-.92-.36-1.47s.12-1.03.36-1.47c.24-.43.56-.75.99-.99.44-.24.92-.36,1.47-.36.5,0,.95.1,1.36.31.34.17.63.4.87.68v3.66c-.23.29-.51.52-.85.69-.88.45-1.99.42-2.83-.05-.44-.25-.76-.57-1-1Z"/>
        <path class="cls-1" d="M86.33,10.34c-.85,0-1.62.17-2.3.52-.16.08-.3.17-.45.26-.06-.11-.14-.21-.23-.3-.59-.59-1.61-.56-2.15.01-.27.29-.42.65-.42,1.05v8.52c0,.4.14.77.42,1.05.55.58,1.56.6,2.15.01.29-.29.44-.66.44-1.06v-4.05c0-.98.21-1.75.63-2.29.38-.48.94-.72,1.72-.72.61,0,.88.25,1.03.44.27.35.41.89.41,1.59v5.02c0,.42.15.79.43,1.07.28.28.65.43,1.07.43.4,0,.76-.14,1.05-.42.3-.28.45-.66.45-1.09v-5.22c0-1.43-.38-2.59-1.13-3.47-.78-.91-1.83-1.37-3.12-1.37Z"/>
        <path class="cls-1" d="M101.03,5.7c-.29.29-.44.66-.44,1.06v4.08c-.12-.05-.24-.1-.36-.15-.63-.24-1.32-.36-2.03-.36-1.06,0-2.04.26-2.9.76-.87.51-1.55,1.21-2.04,2.1-.49.88-.73,1.87-.73,2.95s.25,2.06.73,2.94c.49.89,1.18,1.61,2.04,2.12.86.51,1.84.77,2.9.77.7,0,1.37-.12,2.01-.36.24-.09.47-.19.69-.31.04.05.08.1.13.15.58.57,1.55.58,2.13,0,.29-.29.44-.66.44-1.06V6.76c0-.41-.15-.78-.44-1.07-.58-.58-1.56-.57-2.13,0ZM95.9,17.62c-.24-.44-.36-.92-.36-1.47s.12-1.03.36-1.47c.24-.43.56-.75.99-.99.44-.24.92-.36,1.47-.36.5,0,.95.1,1.36.31.34.17.63.4.87.68v3.66c-.23.29-.51.52-.85.69-.88.45-1.99.42-2.83-.05-.44-.25-.76-.57-1-1Z"/>
        <path class="cls-1" d="M106.78,6.25c-.36.37-.55.85-.55,1.38s.19,1.02.56,1.38c.37.36.84.56,1.38.56s1.01-.19,1.38-.55c.38-.37.58-.85.58-1.39s-.19-1.04-.56-1.4c-.72-.72-2.05-.74-2.79.02Z"/>
        <path class="cls-1" d="M107.12,10.84c-.3.29-.46.66-.46,1.08v8.48c0,.42.16.79.46,1.08.29.28.65.43,1.04.43s.77-.15,1.07-.44c.29-.29.44-.66.44-1.06v-8.48c0-.41-.15-.78-.44-1.07-.56-.56-1.51-.58-2.1-.01Z"/>
        <path class="cls-1" d="M120.66,11.09c-.89-.5-1.89-.75-2.97-.75s-2.08.25-2.97.75c-.89.5-1.61,1.21-2.12,2.1-.51.89-.77,1.88-.77,2.95s.26,2.08.77,2.97c.51.88,1.22,1.59,2.11,2.1.89.51,1.89.77,2.97.77s2.08-.25,2.97-.75c.89-.5,1.6-1.21,2.12-2.1.51-.89.77-1.89.77-2.97s-.26-2.08-.77-2.97c-.51-.89-1.22-1.59-2.11-2.09ZM117.69,18.97c-.55,0-1.03-.12-1.46-.37-.43-.25-.76-.58-1.01-1-.25-.43-.37-.9-.37-1.45s.12-1.01.37-1.44c.25-.43.58-.76,1.01-1.01.43-.25.91-.37,1.46-.37s1.03.12,1.46.37c.43.25.76.58,1.01,1.01.25.44.37.91.37,1.44s-.12,1.02-.37,1.45h0c-.25.43-.58.75-1.01,1-.44.25-.91.37-1.46.37Z"/>
        <path class="cls-1" d="M131.65,15.69c-.24-.21-.53-.4-.85-.58-.29-.16-.68-.35-1.17-.59l-.64-.3c-.4-.21-.55-.36-.62-.43-.06-.08-.07-.13-.07-.17,0-.1.02-.14.09-.2.04-.03.15-.13.46-.13.19,0,.38.04.56.12.19.08.35.2.5.36.4.41.83.49,1.12.49.38,0,.73-.14,1.01-.4.31-.27.48-.64.48-1.04,0-.32-.11-.63-.34-.93-.35-.47-.83-.85-1.41-1.13-.57-.27-1.2-.41-1.85-.41-.98,0-1.83.3-2.52.89-.72.61-1.1,1.44-1.1,2.39,0,.7.2,1.32.59,1.85.36.49.91.93,1.64,1.31l1.63.83c.38.2.56.36.65.46.05.06.11.16.11.35,0,.13-.03.24-.2.36-.2.15-.49.23-.87.23-.65,0-1.17-.22-1.59-.67-.3-.32-.68-.49-1.12-.49-.47,0-.78.18-.94.32-.34.28-.52.68-.52,1.12,0,.31.1.63.34.99.41.54.96.97,1.64,1.26.65.29,1.37.43,2.14.43,1.15,0,2.12-.33,2.89-.98.81-.68,1.22-1.58,1.22-2.66s-.43-1.95-1.26-2.65Z"/>
        <path class="cls-1" d="M144.99,17.16c.26-.26.42-.62.46-1.04.02-.13.03-.32.03-.59,0-.94-.23-1.82-.69-2.61-.46-.79-1.11-1.43-1.93-1.89-.82-.46-1.74-.7-2.76-.7-1.07,0-2.06.26-2.93.76-.87.5-1.57,1.21-2.06,2.1-.49.88-.74,1.88-.74,2.96s.25,2.07.73,2.96c.49.9,1.21,1.61,2.12,2.12.9.5,1.94.75,3.08.75.83,0,1.62-.14,2.35-.42.73-.28,1.38-.68,1.94-1.2.42-.39.51-.82.51-1.12,0-.39-.14-.74-.42-1.03-.58-.61-1.56-.58-2.18,0-.3.28-.63.48-.96.6-.35.13-.76.19-1.21.19-.83,0-1.49-.21-2.02-.64-.27-.22-.48-.48-.64-.78h6.25c.41,0,.77-.15,1.05-.43ZM142.33,14.68h-4.64c.15-.28.36-.53.61-.75.5-.43,1.1-.63,1.82-.63s1.26.2,1.7.61c.23.22.4.47.51.77Z"/>
      </g>
    </g>
  </g>
</svg>